<svg width="56" height="56" viewBox="0 0 56 56" fill="none" xmlns="http://www.w3.org/2000/svg">
<path d="M45.5 28H38.5C37.572 28.0009 36.6823 28.37 36.0261 29.0261C35.37 29.6823 35.0009 30.572 35 31.5V52.5H38.5V43.75H45.5V52.5H49V31.5C48.9991 30.572 48.63 29.6823 47.9739 29.0261C47.3177 28.37 46.428 28.0009 45.5 28ZM38.5 40.25V31.5H45.5V40.25H38.5Z" fill="#F18813"/>
<path d="M28 47.25C24.7955 47.2512 21.6415 46.4513 18.8248 44.9232C16.0081 43.395 13.6181 41.187 11.872 38.5H21V35H7V49H10.5V42.5513C12.6382 45.1164 15.314 47.1804 18.338 48.5972C21.3621 50.014 24.6605 50.7489 28 50.75V47.25Z" fill="#F18813"/>
<path d="M35 17.4992H44.1263C41.8635 14.0211 38.5373 11.3675 34.6434 9.93395C30.7496 8.50044 26.4967 8.36383 22.5188 9.54448C18.541 10.7251 15.0513 13.1598 12.57 16.4855C10.0888 19.8113 8.74882 23.8499 8.75 27.9992H5.25C5.25196 23.3219 6.695 18.7588 9.38275 14.9308C12.0705 11.1028 15.8724 8.19595 20.2711 6.60573C24.6698 5.01551 29.4516 4.81918 33.9659 6.04347C38.4801 7.26776 42.5075 9.8532 45.5 13.448V6.99921H49V20.9992H35V17.4992Z" fill="#F18813"/>
</svg>
