<svg width="56" height="53" viewBox="0 0 56 53" fill="none" xmlns="http://www.w3.org/2000/svg">
<path fill-rule="evenodd" clip-rule="evenodd" d="M24.6311 3.46436C37.3431 3.46436 47.0937 14.0379 48.2367 26.6022H52.5981L46.3657 33.0682L39.5633 26.6022H43.9741C42.8838 15.9061 34.9252 6.86629 24.417 6.86629C13.1774 6.86629 4.02967 16.4328 4.02967 28.1889C4.02967 39.9449 13.1774 49.5147 24.417 49.5147C30.0005 49.5147 35.0636 47.1529 38.7464 43.3369L41.4509 46.073C36.9352 50.4551 30.9065 52.9068 24.6311 52.9134C11.1516 52.9134 0.192024 41.8198 0.192024 28.1889C0.192024 14.5579 11.1516 3.46436 24.6311 3.46436Z" fill="#F18813"/>
<path fill-rule="evenodd" clip-rule="evenodd" d="M23.0586 13.2158V29.8114H36.1033V26.4989H26.2539V13.2158H23.0586Z" fill="#F18813"/>
</svg>
