<svg width="56" height="56" viewBox="0 0 56 56" fill="none" xmlns="http://www.w3.org/2000/svg">
<path d="M46.4814 7H1.79395V42H46.4814V7ZM43.0439 38.5H5.23145V10.5H43.0439V38.5Z" fill="#F18813"/>
<path d="M49.9189 15.75V45.5H10.3877V49H53.3564V15.75H49.9189Z" fill="#F18813"/>
<path d="M24.1377 33.0821C28.4023 33.0821 31.8721 29.2389 31.8721 24.5151C31.8721 19.7914 28.4023 15.9482 24.1377 15.9482C19.873 15.9482 16.4033 19.7912 16.4033 24.5151C16.4033 29.2391 19.873 33.0821 24.1377 33.0821ZM24.1377 19.4482C26.507 19.4482 28.4346 21.7213 28.4346 24.5151C28.4346 27.309 26.507 29.5821 24.1377 29.5821C21.7684 29.5821 19.8408 27.309 19.8408 24.5151C19.8408 21.7213 21.7684 19.4482 24.1377 19.4482Z" fill="#F18813"/>
<path d="M8.66895 14.875H12.1064V34.125H8.66895V14.875Z" fill="#F18813"/>
<path d="M36.1689 14.875H39.6064V34.125H36.1689V14.875Z" fill="#F18813"/>
</svg>
