<svg width="56" height="56" viewBox="0 0 56 56" fill="none" xmlns="http://www.w3.org/2000/svg">
<path d="M45.3363 7C44.12 7 42.4243 7.05425 40.634 7.21875C37.0518 7.553 32.9165 8.155 30.3528 10.7188C28.2003 12.8713 23.7483 18.5868 19.634 23.954C18.8203 25.0127 18.8535 24.9917 18.1028 25.977L15.0945 25.8125C13.9937 25.7518 12.8941 25.9532 11.8863 26.4001C10.8784 26.847 9.99091 27.5267 9.29679 28.3832L5.63579 32.865L3.83154 35.1628L6.67354 35.7088L12.417 36.8585L19.1423 43.5838L20.292 49.3273L20.894 52.171L23.134 50.365L27.6193 46.7023C28.4759 46.0081 29.1556 45.1207 29.6025 44.1128C30.0494 43.1049 30.2507 42.0054 30.19 40.9045L30.0255 37.9505C31.044 37.1805 31.0108 37.198 32.1045 36.365C37.484 32.2438 43.2188 27.8197 45.338 25.7023C47.8808 23.1578 48.4495 18.9612 48.7838 15.365C49.118 11.7705 48.9483 8.694 48.9483 8.694L48.8923 7.10675L47.3068 7.05425C47.3068 7.05425 46.5525 7 45.3363 7ZM43.7508 10.5C44.4473 10.5 44.9408 10.5403 45.4465 10.5543C45.4658 11.5728 45.5078 12.6332 45.282 15.0395C44.974 18.354 43.9625 22.0465 42.8215 23.1875C41.264 24.745 35.328 29.47 29.9695 33.579C26.9691 35.885 23.9614 38.1816 20.9465 40.4688L15.5863 35.1085C16.3038 34.146 18.759 30.7965 22.3675 26.0855C26.4695 20.741 31.2068 14.7858 32.8133 13.1793C34.0103 11.984 37.6608 10.9725 40.9613 10.6645C41.8883 10.5691 42.819 10.5142 43.7508 10.5ZM35.7655 16.6793C33.8108 16.6793 32.2655 18.2788 32.2655 20.2335C32.2655 22.19 33.8108 23.7895 35.7655 23.7895C36.7076 23.7872 37.6105 23.412 38.2768 22.746C38.9432 22.08 39.3188 21.1773 39.3215 20.2352C39.3192 19.2928 38.9438 18.3897 38.2775 17.7233C37.6111 17.057 36.7079 16.6816 35.7655 16.6793ZM14.8758 29.3125L15.532 29.3668C14.4785 30.7615 12.7565 32.9963 12.5238 33.3043L10.1735 32.8125L11.976 30.625C12.3214 30.1928 12.7643 29.8486 13.2683 29.6204C13.7723 29.3923 14.3232 29.2868 14.8758 29.3125ZM10.884 38.3915C9.38604 39.8877 8.53204 41.9598 7.93004 43.694C7.32979 45.4318 7.05504 46.8667 7.05504 46.8667L6.51079 49.4375L9.08154 48.9458C9.08154 48.9458 10.4745 48.706 12.1965 48.125C13.9203 47.544 15.9923 46.683 17.5568 45.1167L15.0963 42.6562C14.3175 43.435 12.7723 44.1193 11.3775 44.625C11.9113 43.169 12.69 41.5153 13.3463 40.852L10.884 38.3915ZM26.634 40.4688L26.6883 41.125C26.7255 41.6735 26.6306 42.2228 26.4117 42.7271C26.1928 43.2313 25.8561 43.6757 25.43 44.023L23.1883 45.829L22.6965 43.477C23.0045 43.2495 25.2393 41.5153 26.634 40.4688Z" fill="#F18813"/>
</svg>
