<svg width="66" height="66" viewBox="0 0 66 66" fill="none" xmlns="http://www.w3.org/2000/svg">
<path d="M55.0795 22.247H58C59.4587 22.247 60.8576 22.8265 61.8891 23.858C62.9205 24.8894 63.5 26.2884 63.5 27.747V38.747C63.5 40.2057 62.9205 41.6047 61.8891 42.6361C60.8576 43.6676 59.4587 44.247 58 44.247H55.0795C54.4091 49.5636 51.8215 54.4528 47.8023 57.997C43.7831 61.5413 38.6087 63.497 33.25 63.497V59.0979C37.6261 59.0979 42.2556 57.2422 45.35 54.1479C48.4443 51.0535 50.3 45.8731 50.3 41.497V24.9979C50.3 20.6218 48.4443 15.4422 45.35 12.3479C42.2556 9.2535 37.6261 7.39785 33.25 7.39785C28.8739 7.39785 24.6843 8.7035 21.59 11.7979C18.4956 14.8922 15.65 20.621 15.65 24.997V44.247H8.5C7.04131 44.247 5.64236 43.6676 4.61091 42.6361C3.57946 41.6047 3 40.2057 3 38.747V27.747C3 26.2884 3.57946 24.8894 4.61091 23.858C5.64236 22.8265 7.04131 22.247 8.5 22.247H11.4205C12.0916 16.931 14.6795 12.0425 18.6986 8.4989C22.7177 4.95526 27.8918 3 33.25 3C38.6082 3 43.7823 4.95526 47.8014 8.4989C51.8205 12.0425 54.4084 16.931 55.0795 22.247ZM6.3 26.6479V40.3979H11.4205V26.6479H6.3ZM55.0795 26.6479V40.3979H59.65V26.6479H55.0795ZM21.59 43.6558L24.45 40.3979C27.071 42.0397 30.1573 42.6411 33.25 42.6361C36.3427 42.6411 39.429 42.0397 42.05 40.3979L44.91 43.6558C41.4155 45.8452 37.3737 47.0034 33.25 46.997C29.1263 47.0034 25.0845 45.8452 21.59 43.6558Z" fill="#F18813"/>
</svg>
