<svg width="60" height="60" viewBox="0 0 60 60" fill="none" xmlns="http://www.w3.org/2000/svg">
<g clip-path="url(#clip0)">
<path d="M58.5945 20.38L53.5373 11.62C53.0423 10.7611 52.2645 10.1006 51.3368 9.75124C50.4091 9.40187 49.3888 9.38527 48.4502 9.70428L43.2345 11.4679C42.3356 10.8627 41.3963 10.32 40.4231 9.84357L39.3452 4.44571C39.1509 3.47381 38.6258 2.59927 37.8593 1.97101C37.0927 1.34275 36.1321 0.999608 35.1409 1H25.0266C24.0355 0.999608 23.0749 1.34275 22.3083 1.97101C21.5417 2.59927 21.0166 3.47381 20.8224 4.44571L19.7445 9.84357C18.7603 10.3148 17.8102 10.8539 16.9009 11.4571L11.7152 9.70428C10.7772 9.38639 9.75789 9.40356 8.83108 9.75288C7.90426 10.1022 7.12723 10.762 6.63235 11.62L1.57521 20.38C1.0798 21.2378 0.896823 22.2407 1.05739 23.2181C1.21795 24.1956 1.71215 25.0872 2.45592 25.7414L6.59378 29.3779C6.55735 29.9179 6.51235 30.4536 6.51235 31C6.51235 31.5529 6.53378 32.0993 6.57235 32.6414L2.45807 36.2586C1.7136 36.9122 1.21858 37.8036 1.05723 38.7811C0.895878 39.7586 1.07816 40.7618 1.57306 41.62L6.63021 50.38C7.12492 51.2393 7.90253 51.9002 8.83031 52.25C9.75808 52.5998 10.7785 52.6167 11.7174 52.2979L16.9331 50.5321C17.8316 51.1384 18.771 51.6819 19.7445 52.1586L20.8224 57.5543C21.0166 58.5262 21.5417 59.4007 22.3083 60.029C23.0749 60.6572 24.0355 61.0004 25.0266 61H34.3695V56.7143H25.0266L23.5052 49.1071C21.4005 48.3253 19.4468 47.1857 17.7302 45.7386L10.3438 48.2371L5.28664 39.4771L11.1259 34.345C10.7264 32.129 10.7213 29.8599 11.1109 27.6421L5.28664 22.5229L10.3438 13.7629L17.6873 16.2486C19.4162 14.7994 21.3851 13.6637 23.5052 12.8929L25.0266 5.28571H35.1409L36.6623 12.8929C38.767 13.6748 40.7207 14.8144 42.4373 16.2614L49.8238 13.7629L54.8809 22.5229L48.8852 27.7771L51.7095 31L57.7095 25.7414C58.454 25.0878 58.949 24.1964 59.1103 23.2189C59.2717 22.2414 59.0894 21.2382 58.5945 20.38Z" fill="#F18813"/>
<path d="M30 41.25C27.775 41.25 25.5999 40.5902 23.7498 39.354C21.8998 38.1179 20.4578 36.3609 19.6064 34.3052C18.7549 32.2495 18.5321 29.9875 18.9662 27.8052C19.4003 25.623 20.4717 23.6184 22.0451 22.0451C23.6184 20.4717 25.623 19.4003 27.8052 18.9662C29.9875 18.5321 32.2495 18.7549 34.3052 19.6064C36.3609 20.4578 38.1179 21.8998 39.354 23.7498C40.5902 25.5999 41.25 27.775 41.25 30C41.2661 31.4818 40.986 32.952 40.4264 34.3241C39.8667 35.6963 39.0386 36.9429 37.9908 37.9908C36.9429 39.0386 35.6963 39.8667 34.3241 40.4264C32.952 40.986 31.4818 41.2661 30 41.25ZM30 22.5C29.0089 22.4774 28.0235 22.656 27.1034 23.025C26.1833 23.3939 25.3475 23.9455 24.6465 24.6465C23.9455 25.3475 23.3939 26.1833 23.025 27.1034C22.656 28.0235 22.4774 29.0089 22.5 30C22.4774 30.9911 22.656 31.9765 23.025 32.8966C23.3939 33.8167 23.9455 34.6525 24.6465 35.3535C25.3475 36.0545 26.1833 36.6061 27.1034 36.9751C28.0235 37.344 29.0089 37.5226 30 37.5C30.9911 37.5226 31.9765 37.344 32.8966 36.9751C33.8167 36.6061 34.6525 36.0545 35.3535 35.3535C36.0545 34.6525 36.6061 33.8167 36.9751 32.8966C37.344 31.9765 37.5226 30.9911 37.5 30C37.5226 29.0089 37.344 28.0235 36.9751 27.1034C36.6061 26.1833 36.0545 25.3475 35.3535 24.6465C34.6525 23.9455 33.8167 23.3939 32.8966 23.025C31.9765 22.656 30.9911 22.4774 30 22.5Z" fill="#F18813"/>
<path d="M43.125 49.0877L38.2687 44.2314L35.625 46.8752L43.125 54.3752L56.25 41.2502L53.6063 38.6064L43.125 49.0877Z" fill="#F18813"/>
</g>
<defs>
<clipPath id="clip0">
<rect width="60" height="60" fill="white"/>
</clipPath>
</defs>
</svg>
