<svg width="58" height="66" viewBox="0 0 58 66" fill="none" xmlns="http://www.w3.org/2000/svg">
<path d="M41.4027 37.2023L35.2143 61.875L31.0714 44.3438L35.2143 37.125H22.7857L26.9286 44.3438L22.7857 61.875L16.5973 37.2023C7.36652 37.6406 0 45.1559 0 54.45V59.8125C0 63.2285 2.78348 66 6.21429 66H51.7857C55.2165 66 58 63.2285 58 59.8125V54.45C58 45.1559 50.6335 37.6406 41.4027 37.2023Z" fill="#F18813"/>
<path d="M43.1949 19C43.1949 26.7239 36.9041 33 29.1257 33C21.3473 33 15.0564 26.7239 15.0564 19C15.0564 11.2761 21.3473 5 29.1257 5C36.9041 5 43.1949 11.2761 43.1949 19Z" stroke="#F18813" stroke-width="4"/>
<path d="M6.56997 44.953C9.09837 42.0228 14.5285 41 14.5285 41L20 62.7413C20 62.7413 4.73191 63.916 3.58548 61.2589C2.0931 57.8001 3.58538 48.4118 6.56997 44.953Z" fill="white" stroke="#F18813"/>
<path d="M51.43 44.953C48.9016 42.0228 43.4715 41 43.4715 41L38 62.7413C38 62.7413 53.2681 63.916 54.4145 61.2589C55.9069 57.8001 54.4146 48.4118 51.43 44.953Z" fill="white" stroke="#F18813"/>
</svg>
